<?xml version="1.0" standalone="no"?>
<!DOCTYPE svg PUBLIC "-//W3C//DTD SVG 20010904//EN"
 "http://www.w3.org/TR/2001/REC-SVG-20010904/DTD/svg10.dtd">
<svg version="1.0" xmlns="http://www.w3.org/2000/svg"
 width="401.000000pt" height="401.000000pt" viewBox="0 0 401.000000 401.000000"
 preserveAspectRatio="xMidYMid meet">
<metadata>
Created by potrace 1.11, written by Peter Selinger 2001-2013
</metadata>
<g transform="translate(0.000000,401.000000) scale(0.100000,-0.100000)"
fill="#000000" stroke="none">
<path d="M1889 3196 c-2 -2 -31 -7 -64 -11 -64 -7 -203 -43 -270 -70 -22 -9
-76 -34 -120 -57 l-79 -41 -121 7 c-66 3 -147 10 -180 15 -33 5 -62 7 -64 5
-2 -2 -7 -19 -10 -38 l-6 -34 -110 28 c-60 15 -141 40 -179 54 -38 14 -71 25
-72 23 -2 -2 39 -57 90 -123 52 -65 91 -122 87 -126 -3 -4 -49 -24 -101 -45
-52 -21 -95 -43 -96 -48 -2 -17 206 -91 339 -119 l27 -6 -39 -78 c-83 -165
-125 -343 -124 -527 1 -92 15 -213 33 -282 9 -37 9 -38 -49 -64 -52 -23 -54
-20 -92 71 -12 30 -29 70 -36 88 l-14 33 -63 -53 c-35 -29 -88 -74 -118 -101
l-56 -47 -103 34 c-57 18 -135 48 -173 65 -79 36 -77 35 -71 19 2 -7 15 -51
30 -98 48 -154 177 -400 210 -400 8 0 37 8 64 19 l48 18 51 -66 c52 -68 182
-205 242 -255 160 -132 300 -217 530 -319 52 -23 205 -72 287 -92 70 -17 72
-18 67 -45 -6 -26 -4 -27 43 -34 26 -4 64 -9 83 -12 201 -28 431 -24 650 12
47 7 89 14 94 14 5 0 6 13 3 29 -6 28 -4 30 46 42 394 94 798 350 1033 654 25
33 49 60 53 60 3 -1 30 -8 60 -18 39 -12 58 -14 67 -6 19 16 98 153 138 240
34 77 86 228 86 254 0 10 -18 6 -67 -17 -38 -17 -114 -46 -171 -64 l-104 -34
-28 22 c-15 13 -69 58 -119 101 l-91 78 -10 -26 c-22 -58 -55 -132 -73 -162
l-18 -31 -49 20 c-54 22 -54 21 -31 103 23 88 31 263 18 389 -14 130 -74 323
-129 416 -12 19 -29 49 -39 66 l-19 31 85 -18 c100 -21 156 -38 248 -73 38
-14 65 -20 61 -13 -13 21 -136 181 -163 210 -31 34 -33 32 101 84 54 21 98 40
98 43 0 15 -260 103 -342 114 -48 7 -48 7 -48 46 0 42 -3 44 -75 54 -120 16
-167 19 -345 18 -170 -1 -203 1 -256 19 -33 11 -71 22 -85 25 -13 2 -46 9 -74
15 -47 10 -318 22 -326 15z"/>
</g>
</svg>
